<svg version="1.2" xmlns="http://www.w3.org/2000/svg" viewBox="0 0 512 512" width="512" height="512">
	<style>
		.s0 { opacity: 1;fill: #000000 } 
		.s1 { opacity: 1;fill: #fdfaf6 } 
		.s2 { fill: #c4855a } 
		.s3 { opacity: 1;fill: #e2a615 } 
		.s4 { opacity: 1;fill: #6e2c54 } 
		.s5 { opacity: 1;fill: #518097 } 
		.s6 { opacity: 1;fill: #2d2c2d } 
	</style>
	<g id="Background">
		<path id="Path 0" class="s0" d="m80.5 52.98c-2.2 0.43-5.8 1.68-8 2.77-2.2 1.09-6.16 4.41-8.8 7.37-2.65 2.97-5.45 7.4-6.26 9.88-1.25 3.87-1.42 25.39-1.2 154l0.26 149.5c4.9 8.69 8.25 12.58 11.1 14.77 2.69 2.07 7.15 4.43 9.9 5.26 3.79 1.13 10.39 1.49 27.25 1.48 12.24-0.01 22.26 0.1 22.28 0.24 0.02 0.14-1.33 3.18-2.98 6.75-1.65 3.57-3.47 8.98-4.04 12-0.57 3.02-1.03 7.3-1.03 9.5 0 2.2 0.68 5.01 1.51 6.25 0.83 1.24 4.32 4.14 7.76 6.44 3.44 2.3 9.06 5.45 12.5 7 3.44 1.55 10.19 3.76 15 4.91 7.31 1.76 10.89 2.03 21.75 1.65 10.2-0.36 14.62-0.99 20.5-2.91l7.5-2.45c11.63 5.02 18.6 7.41 23 8.56 4.4 1.14 12.5 2.47 18 2.95 5.56 0.48 14.44 0.48 20 0.01 5.5-0.47 14.05-2.02 19-3.44 4.95-1.43 11.48-3.72 14.5-5.11l5.5-2.51c12.19 3.86 17.36 4.55 27 4.89 10.87 0.39 14.43 0.12 21.75-1.64 4.81-1.15 11.56-3.36 15-4.91 3.44-1.55 8.95-4.63 12.25-6.85 3.3-2.21 7.24-5.45 8.75-7.19 1.78-2.04 2.75-4.3 2.76-6.4 0.01-1.79-0.45-5.73-1.02-8.75-0.57-3.02-2.39-8.43-4.04-12-1.65-3.57-3-6.61-2.98-6.75 0.02-0.14 10.04-0.25 22.28-0.24 16.86 0.01 23.46-0.35 27.25-1.48 2.75-0.83 7.21-3.19 9.9-5.26 2.85-2.19 6.2-6.08 8-9.27l3.1-5.5c0.49-288.72 0.39-299.34-1.21-304-1-2.91-3.65-7.09-6.34-10-2.68-2.9-6.89-6.05-10.03-7.5l-5.42-2.5c-269.7-0.23-349.8 0.05-352 0.48z"/>
		<path id="Path 1" class="s1" d="m70.24 253.93c0.26 119.27 0.27 119.94 2.32 122.75 1.13 1.55 4.06 3.84 6.5 5.08 4.3 2.19 5.32 2.26 32.94 2.25l28.5-0.01c12.4-6.24 19.38-8.76 23.5-9.62 5.13-1.08 9.95-1.39 15.25-0.98 4.26 0.33 11.13 1.72 15.25 3.1l7.5 2.5c5.81-5.08 9.75-8.09 12.5-9.97 2.75-1.88 7.7-4.67 11-6.2 3.3-1.54 9.82-3.76 14.5-4.94 7.19-1.82 10.43-2.07 21-1.66 10.06 0.39 14.06 1.01 20.5 3.19 4.4 1.48 11.15 4.56 15 6.84 3.85 2.28 8.91 5.85 11.25 7.94l4.25 3.8c10.46-3.17 16.88-4.34 21-4.65 4.96-0.36 10.04-0.01 15 1.03 4.13 0.86 11.1 3.38 15.5 5.59l8 4.03c56.12 0.02 57.14-0.05 61.44-2.24 2.44-1.24 5.37-3.53 6.5-5.08 2.05-2.81 2.06-3.43 2.27-122.75l0.2-119.93h-371.93z"/>
		<path id="Path 2" class="s2" d="m82.5 66.89c-1.65 0.38-4.35 1.62-6 2.76-1.65 1.13-3.79 3.7-4.75 5.7-1.49 3.11-1.75 6.68-1.75 24.15v20.5h372c0-37.96-0.26-41.55-1.75-44.68-0.96-2.02-3.52-4.84-5.68-6.25l-3.92-2.57c-267.49-0.24-346.5 0.01-348.15 0.39z"/>
		<path id="Path 3" class="s3" d="m244.5 370.39c-3.3 0.75-8.47 2.4-11.5 3.66-3.03 1.27-7.94 3.91-10.92 5.88-2.99 1.96-7.86 6.27-10.82 9.57-2.97 3.3-6.78 8.93-8.48 12.5-1.69 3.58-3.77 9.88-4.62 14-0.84 4.13-1.3 8.18-1 9 0.29 0.83 3.19 3.29 6.44 5.47 3.24 2.18 9.28 5.43 13.4 7.22 4.13 1.79 11.1 4.2 15.5 5.36 4.4 1.16 12.72 2.36 18.5 2.67 6.26 0.33 13.93 0.06 19-0.68 4.68-0.68 11.43-2.15 15-3.25 3.57-1.11 9.65-3.5 13.5-5.32 3.85-1.81 9.89-5.47 13.42-8.13l6.42-4.84c-1.04-8.14-2.5-13.54-3.92-17.25-1.42-3.71-4-8.77-5.73-11.25-1.74-2.48-4.85-6.19-6.92-8.25-2.07-2.06-6.58-5.57-10.02-7.8-3.44-2.22-9.85-5.19-14.25-6.58-5.46-1.74-11.02-2.67-17.5-2.94-5.88-0.25-11.79 0.11-15.5 0.96z"/>
		<path id="Path 4" class="s4" d="m164.25 388.57c-2.89 0.78-7.39 2.49-10 3.8-2.61 1.3-6.96 4.56-9.67 7.25-2.71 2.68-6.21 7.58-7.78 10.88-1.68 3.53-2.94 7.99-3.08 10.83l-0.22 4.84c9.3 5.7 15.15 8.42 19 9.72 4.89 1.66 10.16 2.53 17.5 2.88 5.78 0.27 12.64 0.21 15.25-0.14l4.75-0.63c-5.7-6.65-6-7.68-5.99-13.75 0.01-3.71 0.71-9.68 1.55-13.25 0.84-3.57 2.97-9.54 4.73-13.25 1.77-3.71 2.99-6.94 2.71-7.18-0.28-0.25-3.2-1.15-6.5-2.01-3.3-0.86-8.47-1.54-11.5-1.5-3.03 0.04-7.86 0.72-10.75 1.51z"/>
		<path id="Path 5" class="s5" d="m325.5 388.15c-2.2 0.53-4.11 1.04-4.24 1.15-0.13 0.11 1.33 3.35 3.24 7.2 1.91 3.85 4.15 10.04 4.98 13.75 0.84 3.71 1.52 9.68 1.52 13.25 0 6.5 0 6.5-4.54 10.25-2.5 2.06-4.19 4.12-3.75 4.58 0.43 0.45 5.74 0.85 11.79 0.88 7.13 0.03 13.29-0.53 17.5-1.61 3.57-0.91 9.65-3.15 13.5-4.97 3.85-1.82 8.52-4.62 10.37-6.22 3.1-2.68 3.31-3.23 2.68-6.91-0.38-2.2-1.88-6.48-3.34-9.5-1.46-3.02-4.93-7.75-7.72-10.5-2.78-2.75-7.52-6.2-10.53-7.67-3-1.48-7.48-3.15-9.96-3.73-2.48-0.58-7.43-1.02-11-0.98-3.57 0.05-8.3 0.51-10.5 1.03z"/>
		<path id="Path 6" class="s0" d="m97.46 86.97c-1.13 0.5-2.59 1.84-3.25 2.97-0.67 1.13-1.21 2.96-1.21 4.06 0 1.1 0.9 2.9 2 4 1.36 1.36 3.37 2.01 6.25 2.03 2.8 0.02 4.84-0.57 5.97-1.75 0.95-0.98 1.76-3.13 1.79-4.78 0.03-1.65-0.75-3.77-1.73-4.71-0.98-0.94-3.13-1.94-4.78-2.22-1.65-0.29-3.92-0.11-5.04 0.4zm28.54-0.3c-0.82 0.33-2.3 1.32-3.28 2.21-0.98 0.89-1.77 2.86-1.75 4.37 0.02 1.51 0.93 3.65 2.03 4.75q2 2 6 2 4 0 6-2c1.1-1.1 2.01-3.24 2.03-4.75 0.02-1.51-0.77-3.52-1.75-4.46-0.98-0.94-3.13-1.93-4.78-2.21-1.65-0.27-3.67-0.23-4.5 0.09zm28 0c-0.82 0.33-2.3 1.32-3.28 2.21-0.98 0.89-1.77 2.86-1.75 4.37 0.02 1.51 0.93 3.65 2.03 4.75q2 2 6 2 4 0 6-2c1.1-1.1 2.01-3.24 2.03-4.75 0.02-1.51-0.77-3.52-1.75-4.46-0.98-0.94-3.13-1.93-4.78-2.21-1.65-0.27-3.68-0.23-4.5 0.09zm105 0.04c-0.82 0.3-2.3 1.28-3.28 2.17-0.98 0.89-1.79 2.97-1.79 4.62 0 1.65 0.81 3.78 1.79 4.73 1.66 1.61 6.87 1.71 76.67 1.5l74.89-0.23c4.07-5.23 4.11-5.64 2.72-8.5-0.9-1.83-2.71-3.46-4.5-4.05-1.86-0.61-29.97-0.95-74-0.89-39.05 0.05-71.68 0.35-72.5 0.65zm-145.98 77.27c-1.11 1.11-2.02 3.03-2.03 4.27 0 1.24 0.67 3.26 1.5 4.5 1.5 2.23 1.7 2.25 26.44 2.25 20.79 0 25.19-0.25 26.5-1.5 0.86-0.82 1.84-2.51 2.16-3.75 0.38-1.44-0.12-3.16-1.36-4.75l-1.94-2.5c-48.18-0.52-49.34-0.45-51.27 1.48zm249.43 0.24c-0.9 1.22-1.62 3.36-1.58 4.75 0.04 1.39 1.03 3.43 2.2 4.53 1.91 1.78 3.52 2 14.93 2 11.41 0 13.02-0.22 14.93-2 1.26-1.18 2.14-3.23 2.14-5 0-1.65-0.81-3.78-1.79-4.72-1.51-1.46-3.89-1.73-15.48-1.75-13.01-0.03-13.79 0.08-15.35 2.19zm-250 35c-0.9 1.22-1.6 3.25-1.55 4.5 0.06 1.26 1 3.18 2.1 4.28 1.98 1.98 3.36 2 140.25 2.03 131.34 0.03 138.34-0.05 139.97-1.75 0.95-0.98 1.76-3.13 1.79-4.78 0.03-1.65-0.75-3.78-1.73-4.72-1.67-1.62-10.54-1.73-140.48-1.75l-138.7-0.03zm3 32.78c-1.12 0.49-2.59 1.81-3.25 2.94-0.66 1.13-1.22 2.84-1.23 3.81-0.01 0.96 1 2.75 2.25 3.98l2.28 2.23c185.84 0.1 191.09 0.01 192.72-1.68 0.95-0.98 1.74-3.25 1.75-5.03 0.02-2.41-0.69-3.78-2.72-5.29-2.73-2.01-3.71-2.03-96.25-1.93-51.43 0.05-94.42 0.49-95.55 0.97zm238.05 1.45c-1.33 1.35-2.44 3.49-2.48 4.75-0.03 1.26 0.85 3.31 1.96 4.55 1.95 2.17 2.61 2.25 20.02 2.25 16.66 0 18.14-0.15 20-2 1.11-1.11 2-3.34 2-5 0-2.12-0.82-3.6-2.75-5.04-2.52-1.86-4.2-2.03-19.55-2-16.49 0.04-16.84 0.08-19.2 2.49zm-108.5 25.98c-2.48 0.69-6.98 2.52-10 4.07-3.03 1.55-7.79 5.11-10.59 7.91-2.8 2.8-6.36 7.56-7.91 10.59-1.54 3.02-3.41 7.75-4.14 10.5-0.74 2.75-1.35 7.47-1.36 10.5-0.01 3.02 0.69 8.2 1.55 11.5 0.86 3.3 2.78 8.2 4.26 10.9 1.48 2.69 4.97 7.19 7.77 10 2.8 2.8 7.97 6.54 11.5 8.29 3.53 1.76 9.57 3.73 13.42 4.38 5.24 0.89 8.63 0.9 13.5 0.07 3.57-0.61 9.65-2.65 13.5-4.54 4.62-2.27 8.78-5.33 12.25-9.02 2.88-3.07 6.59-8.4 8.24-11.83 1.64-3.44 3.5-9.18 4.13-12.75 0.86-4.92 0.84-8.21-0.05-13.5-0.66-3.85-2.47-9.7-4.04-13-1.56-3.3-5.27-8.48-8.23-11.5-2.97-3.03-7.62-6.71-10.35-8.19-2.72-1.48-7.65-3.39-10.95-4.26-3.3-0.86-8.7-1.52-12-1.47-3.3 0.05-8.03 0.66-10.5 1.35zm-83.5 42.56c-2.75 1.03-7.41 4.05-10.36 6.69-3.51 3.17-6.43 7.04-8.5 11.3-2.78 5.73-3.14 7.45-3.12 15 0.02 7.18 0.45 9.42 2.75 14.27 1.5 3.16 4.75 7.77 7.23 10.25 2.47 2.47 7.08 5.73 10.25 7.25 4.95 2.37 6.99 2.75 14.75 2.75 7.71 0 9.78-0.38 14.5-2.67 3.02-1.47 7.48-4.62 9.9-7 2.42-2.38 5.66-7.03 7.21-10.33 1.54-3.3 3.07-8.48 3.39-11.5 0.37-3.57 0.02-7.61-1-11.5-0.87-3.3-3.14-8.37-5.04-11.25-1.91-2.89-5.51-6.72-8.01-8.5-2.5-1.79-6.66-4.02-9.25-4.96-2.88-1.05-7.61-1.71-12.2-1.7-4.89 0.01-9.25 0.67-12.5 1.9zm162.5-0.6c-1.93 0.69-5.58 2.7-8.13 4.47-2.54 1.76-6.27 5.33-8.28 7.92-2.02 2.6-4.43 6.97-5.36 9.72-0.96 2.85-1.68 8.01-1.67 12 0.01 5.7 0.58 8.21 3.07 13.5 1.68 3.57 5.04 8.45 7.46 10.83 2.42 2.38 6.88 5.53 9.91 7 4.71 2.29 6.78 2.67 14.5 2.67 7.75 0 9.79-0.38 14.75-2.75 3.16-1.52 7.68-4.67 10.04-7 2.37-2.34 5.61-6.95 7.21-10.25 2.51-5.16 2.92-7.2 2.96-14.52 0.03-7.57-0.32-9.25-3.11-15-2.07-4.26-4.99-8.13-8.5-11.3-2.98-2.68-7.68-5.67-10.6-6.75-3.62-1.33-7.66-1.91-13-1.86-4.27 0.04-9.33 0.63-11.25 1.32zm-230.89 38.16c-1.76 1.15-2.34 2.39-2.23 4.75 0.08 1.76 0.48 3.69 0.88 4.3 0.41 0.6 1.75 1.62 2.99 2.25 1.28 0.66 7.06 1.16 13.5 1.18 9.77 0.03 11.61-0.23 14-2 1.93-1.43 2.75-2.92 2.75-5.03 0-1.67-0.89-3.89-2-5-1.79-1.79-3.34-2-14.75-2.01-9.9-0.01-13.29 0.34-15.14 1.56z"/>
		<path id="Path 7" class="s6" d="m127.5 175.75c6.05 0.17 16.18 0.17 22.5 0 6.32-0.18 1.38-0.32-11-0.32-12.38 0-17.55 0.14-11.5 0.32zm57 21c37.4 0.15 98.82 0.15 136.5 0 37.68-0.15 7.08-0.26-68-0.26-75.08 0-105.9 0.11-68.5 0.26z"/>
		<path id="Path 8" class="s3" d="m248 272.57c-3.03 0.85-7.04 2.53-8.93 3.74-1.89 1.2-5.17 4.21-7.29 6.69-2.12 2.48-4.61 6.75-5.54 9.5-0.93 2.75-1.68 7.93-1.69 11.5 0 5.22 0.61 7.78 3.12 13 1.92 4.01 4.78 7.95 7.47 10.29 2.4 2.08 6.83 4.71 9.86 5.83 4.22 1.58 7.24 1.97 13 1.7 5.04-0.24 8.97-1.06 12-2.52 2.48-1.19 6.44-4.1 8.82-6.48 2.38-2.38 5.29-6.34 6.48-8.82 1.46-3.03 2.28-6.96 2.52-12 0.27-5.76-0.12-8.78-1.7-13-1.12-3.02-3.75-7.46-5.83-9.86-2.24-2.57-6.25-5.54-9.79-7.23-3.35-1.61-8.43-3.1-11.5-3.38-3.42-0.32-7.58 0.08-11 1.04z"/>
		<path id="Path 9" class="s4" d="m164.33 316.34c-2.25 1.28-5.6 4.54-7.44 7.25-2.21 3.24-3.48 6.43-3.74 9.41-0.23 2.48 0.19 6.3 0.91 8.5 0.73 2.2 2.7 5.54 4.38 7.41 1.69 1.88 4.86 4.23 7.06 5.23 2.2 1 6.25 1.83 9 1.85 3.26 0.02 6.54-0.76 9.44-2.23 2.45-1.24 5.7-3.83 7.24-5.76 1.61-2.02 3.28-5.83 3.94-9 0.85-4.1 0.85-6.58 0.01-9.75-0.62-2.34-2.82-6.12-4.88-8.4-2.06-2.29-5.21-4.76-7-5.5-1.79-0.74-5.85-1.35-9.03-1.35-4.23 0-6.89 0.63-9.89 2.34z"/>
		<path id="Path 10" class="s5" d="m329 314.26c-1.93 0.72-4.85 2.22-6.5 3.36-1.65 1.13-4.24 4.5-5.76 7.47-1.52 2.98-2.76 6.98-2.75 8.91 0.01 1.93 0.47 5.19 1.02 7.25 0.54 2.06 2.45 5.38 4.24 7.38 1.79 1.99 4.94 4.47 7 5.5 2.3 1.15 5.88 1.87 9.25 1.87 3.37 0 6.95-0.72 9.25-1.87 2.06-1.03 5.12-3.39 6.81-5.25 1.68-1.86 3.65-5.18 4.38-7.38 0.84-2.53 1.11-6.02 0.73-9.5-0.41-3.73-1.52-6.79-3.43-9.5-1.56-2.2-4.61-5-6.78-6.23-2.18-1.23-6.21-2.47-8.96-2.77-2.95-0.31-6.43 0-8.5 0.76z"/>
	</g>
</svg>